{"glyphs":{"0":{"ha":950,"x_min":0,"x_max":0,"o":"m 474 1014 b 475 0 -72 1014 -167 0 b 474 1014 1057 0 1085 1014 z m 397 503 b 500 811 390 583 396 811 b 515 806 508 811 513 808 z m 600 596 b 496 256 607 511 607 256 b 467 265 486 256 475 260 z "},"1":{"ha":621,"x_min":0,"x_max":0,"o":"m 593 743 b 361 1014 593 940 561 1014 b 28 750 174 1014 28 871 b 122 664 28 699 74 664 b 188 699 167 664 169 699 b 169 285 208 699 169 431 b 363 0 169 135 168 0 b 593 300 569 0 593 144 b 593 743 593 449 593 594 z "},"2":{"ha":953,"x_min":0,"x_max":0,"o":"m 529 1011 b 28 632 288 1011 28 871 b 188 493 28 533 96 493 b 526 799 440 493 390 799 b 601 714 571 799 601 763 b 43 174 601 394 43 456 b 256 0 43 21 118 0 b 738 14 417 0 578 7 b 757 221 982 19 924 221 b 419 204 646 221 531 204 b 925 667 457 257 925 260 b 529 1011 925 913 746 1011 z "},"3":{"ha":993,"x_min":0,"x_max":0,"o":"m 508 1053 b 99 751 300 1053 99 961 b 253 614 99 665 171 614 b 496 815 447 614 393 815 b 572 740 538 815 572 783 b 389 525 572 625 389 663 b 571 363 389 392 571 461 b 497 275 571 322 543 275 b 244 458 379 275 385 458 b 28 275 136 458 28 392 b 424 0 28 81 206 0 b 965 385 690 0 965 118 b 808 639 965 558 808 599 b 863 803 808 689 863 722 b 508 1053 863 990 664 1053 z "},"4":{"ha":926,"x_min":0,"x_max":0,"o":"m 668 1010 b 28 354 397 1010 28 506 b 406 278 28 210 317 278 b 664 0 585 278 360 0 b 899 207 833 0 899 69 b 875 806 899 379 883 633 b 668 1010 868 944 815 1010 z m 347 483 b 492 649 354 497 471 631 b 489 482 497 649 514 482 b 347 483 447 482 389 483 z "},"5":{"ha":939,"x_min":0,"x_max":0,"o":"m 719 957 b 156 957 532 957 343 957 b 28 857 101 957 28 917 b 40 533 28 749 36 642 b 221 436 43 443 154 436 b 554 396 328 436 458 453 b 539 244 638 349 646 244 b 253 406 424 244 401 406 b 43 254 146 406 43 347 b 429 0 43 85 285 0 b 911 385 761 0 911 192 b 619 667 911 538 811 667 b 463 714 556 667 463 654 b 732 757 463 794 672 757 b 878 863 828 757 878 785 b 719 957 878 943 811 957 z "},"6":{"ha":957,"x_min":0,"x_max":0,"o":"m 582 1022 b 478 0 -121 1022 -153 0 b 538 579 983 0 1054 579 b 376 535 472 579 394 553 b 542 818 376 599 451 818 b 590 765 574 818 590 796 b 586 706 590 746 586 726 b 746 585 586 618 669 585 b 929 756 853 585 929 644 b 582 1022 929 950 749 1022 z m 418 343 b 532 256 588 442 688 256 b 418 343 456 256 418 307 z "},"7":{"ha":768,"x_min":0,"x_max":0,"o":"m 603 1004 b 103 994 436 1004 268 1008 b 28 893 51 990 28 944 b 111 814 28 846 65 814 b 407 824 174 814 360 825 b 67 124 369 642 67 343 b 207 0 67 43 132 0 b 458 236 375 0 397 110 b 740 886 501 325 740 789 b 603 1004 740 963 674 1004 z "},"8":{"ha":897,"x_min":0,"x_max":0,"o":"m 476 981 b 132 601 260 981 3 842 l 132 600 b 463 0 -117 333 117 0 b 758 497 808 0 1006 351 l 758 500 b 476 981 975 738 782 981 z m 508 613 b 521 779 458 658 446 779 b 508 613 597 779 556 631 z m 488 261 b 390 426 404 261 378 360 b 488 261 442 404 576 261 z "},"9":{"ha":928,"x_min":0,"x_max":0,"o":"m 457 992 b 336 401 -35 992 -53 401 b 576 463 418 401 504 425 b 425 272 599 417 554 272 b 185 374 300 272 300 374 b 379 0 -44 374 -53 0 b 457 992 1081 0 1039 992 z m 481 639 b 472 785 374 639 369 785 b 579 674 528 785 589 732 b 481 639 557 651 513 639 z "},"\u0000":{"ha":0,"x_min":0,"x_max":0,"o":""},"\r":{"ha":347,"x_min":0,"x_max":0,"o":""}," ":{"ha":347,"x_min":0,"x_max":0,"o":""},"!":{"ha":468,"x_min":0,"x_max":0,"o":"m 228 1004 b 28 628 68 1004 28 879 b 222 269 28 457 39 269 b 440 686 436 269 440 535 b 228 1004 440 885 418 1004 z m 225 229 b 213 -67 -12 229 4 -67 b 225 229 426 -67 417 229 z "},"\"":{"ha":972,"x_min":0,"x_max":0,"o":"m 293 993 b 129 856 199 993 129 939 b 158 740 129 790 158 763 b 28 657 158 706 28 754 b 197 528 28 581 97 528 b 293 993 522 528 547 993 z m 772 993 b 608 856 678 993 608 939 b 638 740 608 790 638 763 b 507 657 638 706 507 754 b 676 528 507 581 576 528 b 772 993 1001 528 1026 993 z "},"#":{"ha":1269,"x_min":0,"x_max":0,"o":"m 596 981 b 432 839 494 981 474 915 l 140 300 b 164 6 86 199 7 42 b 419 160 281 -21 375 72 b 725 846 486 292 725 774 b 596 981 725 919 685 981 z m 1025 981 b 861 839 924 981 903 915 l 569 300 b 593 6 515 199 436 42 b 849 160 710 -21 804 72 b 1154 846 915 292 1154 774 b 1025 981 1154 919 1114 981 z m 754 789 b 217 681 547 789 203 789 b 738 588 229 592 590 588 b 1242 692 1063 588 1242 610 b 754 789 1242 753 1051 789 z m 567 397 b 29 289 360 397 15 397 b 550 196 42 200 403 196 b 1054 300 875 196 1054 218 b 567 397 1054 361 864 397 z "},"$":{"ha":950,"x_min":0,"x_max":0,"o":"m 507 1043 b 113 774 342 1043 113 947 b 558 343 113 533 558 493 b 506 303 558 314 533 303 b 218 524 368 303 394 524 b 28 344 110 524 28 454 b 456 0 28 113 254 0 b 922 310 639 0 922 85 b 489 729 922 594 489 522 b 554 828 489 761 515 828 b 744 596 614 828 517 596 b 507 1043 1003 596 981 1043 z m 304 206 b 304 11 304 99 304 22 b 494 -239 304 -99 339 -239 b 689 38 631 -239 689 -131 l 689 213 l 689 233 z m 501 1250 b 303 1018 338 1250 303 1138 b 303 874 303 1006 303 951 b 303 839 303 863 303 851 l 689 885 l 689 906 l 689 1057 b 501 1250 689 1161 646 1250 z "},"%":{"ha":1453,"x_min":0,"x_max":0,"o":"m 904 981 b 740 839 803 981 782 915 l 449 300 b 472 6 394 199 315 42 b 728 160 589 -21 683 72 b 1033 846 794 292 1033 774 b 904 981 1033 919 993 981 z m 294 1014 b 296 407 -32 1014 -89 407 b 294 1014 643 407 660 1014 z m 249 708 b 310 893 244 756 247 893 b 319 889 315 893 318 890 z m 369 764 b 308 560 374 713 374 560 b 290 565 301 560 296 563 z m 1157 607 b 1158 0 831 607 774 0 b 1157 607 1506 0 1522 607 z m 1111 301 b 1172 486 1107 349 1110 486 b 1182 482 1178 486 1181 483 z m 1232 357 b 1171 153 1236 306 1236 153 b 1153 158 1164 153 1158 156 z "},"&":{"ha":926,"x_min":0,"x_max":0,"o":"m 506 1103 b 215 842 340 1103 215 1014 b 267 625 215 767 236 693 l 265 622 b 361 64 -112 417 -6 64 b 600 92 468 64 538 75 b 736 0 646 54 668 0 b 863 107 810 0 863 46 b 813 244 863 156 818 229 b 899 453 856 306 899 376 b 778 600 899 531 864 600 b 628 450 672 600 650 467 b 538 579 615 468 538 567 b 540 582 538 581 539 581 b 769 871 597 626 769 726 b 506 1103 769 1025 647 1103 z m 457 731 b 488 878 438 731 424 878 b 457 731 540 878 494 731 z m 354 382 b 381 453 354 399 367 442 b 460 326 382 447 443 346 l 439 326 b 354 382 399 326 354 331 z "},"'":{"ha":493,"x_min":0,"x_max":0,"o":"m 293 993 b 129 856 199 993 129 939 b 158 740 129 790 158 763 b 28 657 158 706 28 754 b 197 528 28 581 97 528 b 293 993 522 528 547 993 z "},"(":{"ha":760,"x_min":0,"x_max":0,"o":"m 639 1240 b 581 -250 -150 1240 -179 -250 b 722 -153 643 -250 722 -228 b 554 -29 722 -79 606 -57 b 651 1039 226 147 297 972 b 639 1240 760 1060 758 1240 z "},")":{"ha":760,"x_min":0,"x_max":0,"o":"m 121 1240 b 108 1039 1 1240 0 1060 b 206 -29 463 972 533 147 b 38 -153 154 -57 38 -79 b 179 -250 38 -228 117 -250 b 121 1240 939 -250 910 1240 z "},"*":{"ha":440,"x_min":0,"x_max":0,"o":"m 232 1008 b 185 928 194 1008 188 956 b 111 964 165 944 138 964 b 82 931 92 964 82 950 b 97 874 82 911 89 892 l 97 871 b 28 829 76 868 28 858 b 92 771 28 803 71 781 b 71 681 81 753 49 704 b 165 693 96 654 142 683 b 211 622 167 669 181 622 b 268 686 240 622 257 665 b 335 663 290 672 308 663 b 361 686 350 663 361 671 b 331 754 361 708 331 742 l 331 756 b 413 807 354 760 413 775 b 343 849 413 835 363 846 l 340 851 b 371 922 356 872 371 894 b 347 953 371 938 367 953 b 281 924 322 953 303 933 b 232 1008 275 949 265 1008 z "},"+":{"ha":653,"x_min":0,"x_max":0,"o":"m 342 622 b 29 514 221 622 21 622 b 332 421 36 425 246 421 b 625 525 521 421 625 443 b 342 622 625 586 514 622 z m 424 503 b 315 815 424 624 424 824 b 222 513 226 808 222 599 b 326 219 222 324 244 219 b 424 503 388 219 424 331 z "},",":{"ha":390,"x_min":0,"x_max":0,"o":"m 190 260 b 26 122 96 260 26 206 b 56 7 26 57 56 29 b -75 -76 56 -28 -75 21 b 94 -206 -75 -153 -6 -206 b 190 260 419 -206 444 260 z "},"-":{"ha":653,"x_min":0,"x_max":0,"o":"m 342 622 b 29 514 221 622 21 622 b 332 421 36 425 246 421 b 625 525 521 421 625 443 b 342 622 625 586 514 622 z "},".":{"ha":340,"x_min":0,"x_max":0,"o":"m 190 268 b 157 0 -1 268 -35 0 b 190 268 349 0 367 268 z "},"/":{"ha":710,"x_min":0,"x_max":0,"o":"m 553 981 b 389 839 451 981 431 915 l 97 300 b 121 6 43 199 -36 42 b 376 160 238 -21 332 72 b 682 846 443 292 682 774 b 553 981 682 919 642 981 z "},":":{"ha":340,"x_min":0,"x_max":0,"o":"m 190 268 b 157 0 -1 268 -35 0 b 190 268 349 0 367 268 z m 190 815 b 157 547 -1 815 -35 547 b 190 815 349 547 367 815 z "},";":{"ha":388,"x_min":0,"x_max":0,"o":"m 188 260 b 24 122 93 260 24 206 b 53 7 24 57 53 29 b -78 -76 53 -28 -78 21 b 92 -206 -78 -153 -8 -206 b 188 260 417 -206 442 260 z m 206 815 b 172 547 14 815 -19 547 b 206 815 364 547 382 815 z "},"<":{"ha":694,"x_min":0,"x_max":0,"o":"m 582 751 b 28 365 415 751 28 489 b 532 0 28 253 335 0 b 661 92 607 0 661 33 b 443 385 661 203 443 311 b 667 671 443 453 667 553 b 582 751 667 725 633 751 z "},"=":{"ha":653,"x_min":0,"x_max":0,"o":"m 342 622 b 29 514 221 622 21 622 b 332 421 36 425 246 421 b 625 525 521 421 625 443 b 342 622 625 586 514 622 z m 342 358 b 29 250 221 358 21 358 b 332 157 36 161 246 157 b 625 261 521 157 625 179 b 342 358 625 322 514 358 z "},">":{"ha":694,"x_min":0,"x_max":0,"o":"m 113 751 b 28 671 61 751 28 725 b 251 385 28 553 251 453 b 33 92 251 311 33 203 b 163 0 33 33 88 0 b 667 365 360 0 667 253 b 113 751 667 489 279 751 z "},"?":{"ha":988,"x_min":0,"x_max":0,"o":"m 538 1135 b 28 740 315 1135 28 996 b 297 471 28 606 161 471 b 507 626 376 471 507 536 b 436 781 507 693 436 726 b 488 844 436 808 458 844 b 585 675 569 844 585 735 b 569 558 585 639 581 592 b 346 285 532 444 346 424 b 501 153 346 203 426 153 b 713 376 669 153 635 292 b 960 738 815 489 960 554 b 538 1135 960 972 764 1135 z m 501 117 b 322 -46 411 117 322 51 b 442 -156 322 -111 378 -156 b 622 4 533 -156 622 -94 b 501 117 622 75 571 117 z "},"@":{"ha":1492,"x_min":0,"x_max":0,"o":"m 825 1147 b 214 960 615 1147 372 1110 b 28 514 93 844 28 679 b 597 0 28 171 274 0 b 835 157 697 0 835 31 b 607 261 835 258 674 244 b 454 588 472 296 454 472 b 853 971 454 808 635 971 b 1160 663 1033 971 1160 844 b 1082 500 1160 614 1150 500 b 1040 572 1046 500 1040 546 b 1057 722 1040 622 1057 672 b 968 835 1057 778 1032 835 b 931 828 956 835 943 832 b 888 872 915 842 906 861 b 793 897 860 889 825 897 b 542 650 664 897 556 772 b 532 519 536 607 532 563 b 675 303 532 436 569 303 b 846 460 750 303 814 400 b 860 394 853 439 854 417 b 1138 185 893 267 1007 185 b 1464 561 1351 185 1464 364 b 1103 1113 1464 806 1347 1036 b 825 1147 1017 1139 915 1147 z m 715 581 b 757 713 715 661 733 654 l 763 714 b 772 694 771 714 772 700 b 722 563 772 675 742 563 b 715 581 715 563 715 576 z "},"A":{"ha":1031,"x_min":0,"x_max":0,"o":"m 538 1032 b 28 100 314 1032 28 292 b 217 -3 28 1 142 -3 b 525 231 468 -3 432 231 b 735 0 614 231 557 0 l 850 0 b 1003 154 949 0 1003 57 b 538 1032 1003 356 774 1032 z m 467 515 b 526 686 467 538 508 686 b 564 518 543 686 564 542 b 467 515 564 471 467 476 z "},"B":{"ha":1067,"x_min":0,"x_max":0,"o":"m 965 797 b 299 1022 965 1072 492 1046 b 43 764 99 997 61 964 b 31 303 28 613 25 456 b 525 0 43 -11 275 0 b 1039 311 731 0 1039 39 b 819 558 1039 474 904 538 b 965 797 893 613 965 701 z m 428 757 b 474 838 428 788 432 838 b 481 626 585 838 567 626 b 428 757 431 626 428 725 z m 451 365 b 506 439 451 419 479 439 b 518 181 604 439 621 181 b 451 303 460 181 451 260 z "},"C":{"ha":946,"x_min":0,"x_max":0,"o":"m 556 1024 b 481 1 -171 1024 -100 25 b 910 303 685 -7 910 74 b 719 479 910 408 821 479 b 526 285 549 479 667 285 b 544 799 331 285 360 799 b 579 758 567 799 579 778 b 549 654 579 724 549 692 b 694 546 549 581 617 546 b 918 778 831 546 918 653 b 556 1024 918 975 715 1024 z "},"D":{"ha":1053,"x_min":0,"x_max":0,"o":"m 442 1046 b 31 771 242 1046 50 1007 b 28 656 28 733 28 693 b 28 344 28 549 28 450 b 422 0 28 46 153 0 b 442 1046 1203 0 1242 1046 z m 417 593 b 472 779 410 726 424 779 b 475 268 653 779 635 268 b 428 375 451 268 432 286 z "},"E":{"ha":821,"x_min":0,"x_max":0,"o":"m 644 1007 b 268 1007 514 1007 390 1007 b 29 767 114 1007 36 921 b 29 388 28 739 29 417 b 342 0 29 149 1 0 l 515 0 b 793 135 608 0 793 1 b 675 228 793 196 728 226 l 465 235 b 425 293 429 238 425 261 b 679 490 425 432 679 263 b 565 646 679 571 663 646 b 426 708 499 646 426 606 b 519 793 426 765 458 793 b 790 890 611 793 790 743 b 644 1007 790 989 721 1007 z "},"F":{"ha":799,"x_min":0,"x_max":0,"o":"m 400 1004 b 33 760 226 1004 33 981 b 229 0 33 629 -18 0 b 446 308 474 0 400 239 b 710 500 474 350 710 275 b 497 613 710 651 589 613 b 438 682 454 613 438 640 b 508 767 438 725 461 765 b 771 871 582 769 771 742 b 400 1004 771 985 483 1004 z "},"G":{"ha":931,"x_min":0,"x_max":0,"o":"m 564 1007 b 497 0 -158 1007 -119 0 b 668 556 938 0 1054 556 b 472 401 575 556 472 508 b 528 318 472 371 490 318 b 607 349 551 318 586 349 b 543 267 636 349 617 267 b 546 800 317 267 390 800 b 575 658 614 800 575 696 b 704 589 575 618 626 589 b 564 1007 1001 589 968 1007 z "},"H":{"ha":1000,"x_min":0,"x_max":0,"o":"m 793 999 b 618 778 667 999 618 892 b 503 611 618 678 633 611 b 403 700 439 611 403 635 b 213 1000 393 857 404 1000 b 29 704 35 1000 29 815 b 28 186 29 532 28 358 b 215 0 28 75 76 0 b 536 400 538 0 258 400 b 803 10 718 400 467 10 b 971 285 954 10 971 167 b 964 836 971 463 975 658 b 793 999 957 936 896 999 z "},"I":{"ha":463,"x_min":0,"x_max":0,"o":"m 232 1018 b 229 742 -14 1018 -7 742 b 232 1018 489 742 449 1018 z m 225 686 b 31 486 86 686 31 618 b 235 0 31 313 -7 0 b 431 475 449 0 438 313 b 225 686 425 638 379 686 z "},"J":{"ha":910,"x_min":0,"x_max":0,"o":"m 732 996 b 292 976 583 996 440 986 b 207 847 231 972 207 899 b 304 725 207 783 233 725 b 474 696 340 725 474 749 l 474 518 b 413 235 474 476 481 235 b 375 278 385 235 375 257 b 397 374 375 313 397 339 b 251 468 397 443 308 468 b 410 0 -71 468 -67 0 b 881 681 888 0 881 304 b 732 996 881 785 883 996 z "},"K":{"ha":1046,"x_min":0,"x_max":0,"o":"m 225 1001 b 29 719 22 1001 29 881 l 31 283 b 213 8 31 128 21 8 b 526 382 511 8 365 382 b 794 0 681 382 540 0 b 1018 285 978 0 1018 125 b 853 543 1018 411 967 497 b 831 563 846 546 831 553 b 1014 847 831 589 1014 643 b 844 997 1014 957 946 997 b 476 610 544 997 618 610 b 225 1001 364 610 538 1001 z "},"L":{"ha":838,"x_min":0,"x_max":0,"o":"m 238 1011 b 31 850 119 1011 35 985 b 31 425 26 721 32 561 b 357 3 29 200 60 19 b 579 1 431 -1 506 1 b 810 139 676 1 810 11 b 661 238 810 233 735 238 b 442 367 557 238 442 226 l 442 844 b 238 1011 442 972 350 1011 z "},"M":{"ha":1311,"x_min":0,"x_max":0,"o":"m 236 1026 b 28 696 47 1026 28 843 b 31 326 28 633 31 389 b 235 0 31 161 33 0 b 407 188 336 0 407 49 b 414 440 407 188 397 440 b 654 19 460 440 543 19 b 882 439 763 19 835 439 b 900 188 911 439 900 269 b 1072 0 900 33 971 0 b 1283 226 1236 0 1283 108 b 1281 706 1283 386 1281 546 b 1068 1025 1281 850 1250 1025 b 654 481 846 1025 719 621 b 236 1026 565 644 456 1026 z "},"N":{"ha":1032,"x_min":0,"x_max":0,"o":"m 217 1033 b 31 750 51 1033 31 881 b 28 364 31 621 28 493 b 217 22 28 228 28 22 b 407 250 369 22 407 115 b 406 483 407 317 388 483 b 800 0 431 483 556 0 b 979 829 1069 0 1001 622 b 796 1013 968 932 906 1013 b 608 828 654 1013 608 925 b 611 567 608 735 629 567 b 217 1033 554 567 506 1033 z "},"O":{"ha":992,"x_min":0,"x_max":0,"o":"m 514 1011 b 478 0 -97 1011 -154 0 b 514 1011 1149 0 1088 1011 z m 524 288 b 536 726 421 288 433 726 b 524 288 646 726 611 288 z "},"P":{"ha":1035,"x_min":0,"x_max":0,"o":"m 572 1068 b 28 689 281 1068 28 1046 b 53 253 28 544 44 397 b 267 0 61 115 108 0 b 467 179 372 0 467 68 b 486 407 467 214 453 386 b 1007 760 543 442 1007 375 b 572 1068 1007 1004 792 1068 z m 478 621 b 472 854 411 621 410 854 b 478 621 579 854 560 621 z "},"Q":{"ha":1011,"x_min":0,"x_max":0,"o":"m 518 1011 b 518 0 -56 1011 -210 0 l 536 0 b 663 -169 546 -72 561 -169 b 875 1 757 -169 875 -79 b 817 103 875 42 844 76 l 817 106 b 518 1011 1119 374 1000 1011 z m 540 288 b 540 726 439 288 438 726 b 540 288 638 726 636 288 z "},"R":{"ha":1022,"x_min":0,"x_max":0,"o":"m 492 1050 b 28 771 313 1050 28 1017 l 28 654 b 35 288 28 532 33 410 b 228 0 36 150 54 0 b 421 161 364 0 421 75 b 500 385 421 221 413 385 b 761 11 618 385 460 11 b 994 253 921 11 994 129 b 885 518 994 403 885 456 b 969 772 885 575 969 644 b 492 1050 969 961 681 1050 z m 468 629 b 440 808 421 629 440 779 b 468 629 607 808 550 629 z "},"S":{"ha":950,"x_min":0,"x_max":0,"o":"m 507 1043 b 113 774 342 1043 113 947 b 558 343 113 533 558 493 b 506 303 558 314 533 303 b 218 524 368 303 394 524 b 28 344 110 524 28 454 b 456 0 28 113 254 0 b 922 310 639 0 922 85 b 489 729 922 594 489 522 b 554 828 489 761 515 828 b 744 596 614 828 517 596 b 507 1043 1003 596 981 1043 z "},"T":{"ha":971,"x_min":0,"x_max":0,"o":"m 507 1010 b 28 858 404 1010 28 1014 b 218 749 28 751 131 764 b 265 615 264 740 265 649 b 251 278 265 517 251 376 b 469 0 251 160 279 0 b 669 271 638 0 669 131 b 663 582 669 374 663 478 l 663 685 b 775 754 663 747 728 754 b 943 874 867 754 943 757 b 507 1010 943 1017 628 1010 z "},"U":{"ha":1047,"x_min":0,"x_max":0,"o":"m 269 974 b 50 746 97 974 69 908 b 28 471 39 654 28 564 b 514 0 28 121 178 0 b 1018 681 1040 0 1022 240 b 796 965 1018 844 990 965 b 583 724 631 965 583 876 b 525 242 583 636 665 242 b 467 797 397 242 467 718 b 269 974 467 956 397 974 z "},"V":{"ha":979,"x_min":0,"x_max":0,"o":"m 201 1006 b 28 844 92 1006 28 958 b 488 0 28 643 219 0 b 951 853 753 0 951 669 b 782 1010 951 946 868 1010 b 493 410 525 1010 597 410 b 201 1006 375 410 499 1006 z "},"W":{"ha":1592,"x_min":0,"x_max":0,"o":"m 214 1036 b 28 861 100 1036 28 968 b 510 0 28 611 253 0 b 794 290 665 0 746 167 l 797 290 b 1079 1 846 168 925 1 l 1092 1 b 1564 831 1346 22 1564 632 b 1371 1038 1564 943 1488 1038 b 1075 392 1085 1038 1150 392 b 826 976 983 392 1010 976 b 551 453 628 976 592 589 b 518 396 549 442 535 396 b 493 446 503 396 494 436 b 214 1036 456 615 463 1036 z "},"X":{"ha":858,"x_min":0,"x_max":0,"o":"m 204 1025 b 28 886 131 1025 28 969 b 211 451 28 783 211 547 b 32 90 211 360 32 235 b 117 0 32 33 64 0 b 347 213 239 0 329 213 b 635 1 363 213 446 1 b 808 178 735 1 808 79 b 647 553 808 328 647 468 b 831 926 647 671 831 817 b 732 1021 831 976 781 1021 b 490 810 626 1021 532 810 b 204 1025 456 810 356 1025 z "},"Y":{"ha":1007,"x_min":0,"x_max":0,"o":"m 236 1025 b 28 781 86 1025 28 900 b 251 390 28 449 79 390 b 499 21 354 390 208 21 b 744 386 807 21 665 386 b 978 703 831 386 978 403 b 794 1007 978 818 990 1007 b 613 800 671 1007 613 932 b 519 615 613 682 624 615 b 236 1025 318 615 575 1025 z "},"Z":{"ha":829,"x_min":0,"x_max":0,"o":"m 511 1022 b 28 869 390 1022 28 1026 b 353 764 28 719 238 764 b 36 174 344 656 36 376 b 476 0 36 -12 346 0 b 801 124 607 0 801 18 b 483 268 801 303 483 200 b 488 281 483 272 486 276 b 775 867 508 319 775 765 b 511 1022 775 1006 617 1022 z "},"[":{"ha":675,"x_min":0,"x_max":0,"o":"m 243 1276 b 29 1031 68 1276 29 1189 b 28 14 29 713 28 332 b 243 -274 28 -142 57 -274 l 451 -274 b 647 -142 532 -274 647 -264 b 421 -25 647 -11 501 -33 b 436 1032 418 31 435 1031 b 624 1150 456 1049 624 1000 b 414 1276 624 1261 547 1276 z "},"\\":{"ha":710,"x_min":0,"x_max":0,"o":"m 157 981 b 28 846 68 981 28 919 b 333 160 28 774 267 292 b 589 6 378 72 472 -21 b 613 300 746 42 667 199 l 321 839 b 157 981 279 915 258 981 z "},"]":{"ha":675,"x_min":0,"x_max":0,"o":"m 261 1276 b 51 1150 128 1276 51 1261 b 239 1032 51 1000 219 1049 b 254 -25 240 1031 257 31 b 28 -142 174 -33 28 -11 b 224 -274 28 -264 143 -274 l 432 -274 b 647 14 618 -274 647 -142 b 646 1031 647 332 646 713 b 432 1276 646 1189 607 1276 z "},"^":{"ha":807,"x_min":0,"x_max":0,"o":"m 779 419 b 393 974 779 586 517 974 b 28 469 281 974 28 667 b 119 340 28 394 61 340 b 413 558 231 340 339 558 b 699 335 481 558 581 335 b 779 419 753 335 779 368 z "},"_":{"ha":653,"x_min":0,"x_max":0,"o":"m 342 0 b 29 -108 221 0 21 0 b 332 -201 36 -197 246 -201 b 625 -97 521 -201 625 -179 b 342 0 625 -36 514 0 z "},"`":{"ha":332,"x_min":0,"x_max":0,"o":"m 146 999 b 28 910 108 999 28 957 b 221 649 28 844 150 649 b 303 715 261 649 307 676 b 146 999 296 783 211 999 z "},"a":{"ha":833,"x_min":0,"x_max":0,"o":"m 690 950 b 415 697 564 950 447 810 l 414 700 b 225 910 379 789 346 910 b 346 114 -128 910 47 114 b 690 950 596 114 1007 950 z "},"b":{"ha":1511,"x_min":0,"x_max":0,"o":"m 1293 1063 b 1151 928 1218 1063 1151 1006 b 1243 811 1151 875 1183 811 b 1342 907 1290 811 1342 860 b 1319 932 1342 921 1333 931 l 1306 929 b 1256 879 1285 914 1292 879 b 1222 926 1232 879 1222 907 b 1285 989 1222 963 1247 989 b 1400 865 1356 989 1400 933 b 1010 647 1400 678 1150 647 b 608 665 876 647 743 665 b 28 163 331 665 28 464 b 296 -111 28 1 132 -111 b 624 213 478 -111 624 28 b 500 385 624 286 586 385 b 364 283 399 385 403 315 l 361 283 b 260 333 331 307 301 333 b 185 243 206 333 185 293 b 364 69 185 151 274 69 b 442 104 383 69 442 79 b 418 117 442 118 429 117 b 232 251 329 117 232 136 b 253 279 232 265 236 279 b 376 221 299 279 331 221 b 488 315 422 221 414 315 b 551 232 538 315 551 275 b 300 -32 551 90 444 -32 b 110 163 179 -32 110 43 b 619 582 110 428 379 582 b 979 563 739 582 858 563 b 1483 849 1163 563 1483 604 b 1293 1063 1483 954 1406 1063 z "},"c":{"ha":1108,"x_min":0,"x_max":0,"o":"m 819 731 b 79 635 568 706 326 679 b 61 618 64 632 61 626 b 207 519 61 581 207 544 b 49 294 207 486 -42 294 b 988 400 357 294 685 342 b 1079 447 1008 404 1081 415 b 796 560 1078 493 810 513 b 854 708 796 588 854 667 b 828 731 854 725 843 731 z "},"d":{"ha":1329,"x_min":0,"x_max":0,"o":"m 1213 1044 b 1078 1008 1183 1044 1078 1042 b 1124 936 1078 981 1124 949 b 1082 897 1124 926 1092 901 b 1044 919 1072 904 1057 919 b 1022 892 1031 919 1025 903 l 1019 892 b 979 906 1010 892 994 906 b 954 874 964 906 954 888 b 982 807 954 850 974 828 b 922 754 971 797 935 754 l 921 754 b 879 792 914 771 900 792 b 843 754 860 792 847 771 b 806 760 831 756 818 760 b 788 735 792 760 788 746 b 817 657 788 714 803 674 b 731 579 790 628 763 601 b 678 629 719 600 707 629 b 618 554 646 629 625 581 l 617 554 b 574 569 606 554 589 569 b 531 507 540 569 531 533 b 561 429 531 471 544 457 l 561 424 l 436 311 l 426 308 b 335 324 396 308 367 324 b 313 314 326 324 315 324 b 335 292 313 306 325 293 b 393 274 353 283 375 283 b 289 190 374 257 311 190 b 196 201 258 190 228 201 b 168 185 185 201 168 200 b 263 156 168 163 244 156 b 185 86 239 131 210 108 b 28 71 164 68 28 96 b 144 49 28 46 128 49 b 40 -62 132 36 40 -44 b 50 -69 40 -68 46 -69 b 181 25 75 -69 157 6 l 181 17 b 175 -86 181 -18 175 -51 b 189 -117 175 -96 174 -117 b 200 -104 196 -117 199 -110 b 231 71 211 -54 192 32 b 308 139 243 83 294 132 l 308 129 b 303 3 308 86 303 44 b 317 -28 303 -10 300 -28 b 340 63 340 -28 340 46 l 340 168 b 431 251 369 197 400 224 l 433 251 l 433 233 b 431 138 433 201 431 169 b 450 76 431 122 428 76 b 471 136 468 76 471 124 l 471 256 b 468 283 471 265 467 274 b 599 401 508 326 551 367 b 668 388 621 394 644 388 b 739 506 736 388 739 454 l 739 526 b 851 629 774 564 813 597 l 858 629 b 913 622 876 629 894 622 b 933 701 942 622 933 681 b 1017 776 958 728 986 756 l 1019 776 b 1057 771 1032 776 1044 771 b 1097 850 1088 771 1076 829 b 1149 897 1114 867 1131 882 l 1154 897 b 1250 828 1175 876 1218 828 b 1279 865 1269 828 1276 849 b 1301 1004 1288 908 1301 961 b 1213 1044 1301 1043 1239 1044 z "},"e":{"ha":833,"x_min":0,"x_max":0,"o":"m 650 911 b 358 703 524 911 417 806 b 325 632 351 690 325 644 l 325 629 b 804 788 340 629 801 785 b 650 911 793 864 724 911 z m 318 597 b 300 557 307 594 300 567 b 288 585 294 565 292 575 l 283 585 b 29 488 207 556 97 524 l 28 485 l 28 442 b 36 374 28 419 33 394 b 42 357 38 368 40 357 l 743 553 b 806 740 797 568 806 694 l 806 757 z m 147 707 b 29 528 81 707 29 583 l 29 517 l 272 610 b 274 613 274 610 274 611 b 147 707 274 647 181 707 z m 740 522 b 92 344 736 524 139 357 b 51 328 83 342 51 339 b 138 201 51 294 117 222 l 621 369 b 740 521 647 378 740 496 z m 599 332 b 163 182 582 338 214 190 b 315 114 197 142 263 114 b 599 332 421 160 514 243 z "},"f":{"ha":1542,"x_min":0,"x_max":0,"o":"m 1357 1111 b 1281 1021 1326 1111 1296 1043 b 489 286 1075 721 808 463 b 190 161 394 233 294 192 b 29 117 160 153 43 133 b 46 103 25 114 32 99 b 151 119 72 111 121 119 b 156 117 154 119 154 118 b 194 65 169 103 182 81 b 308 -60 229 21 265 -22 l 486 -217 b 571 -265 506 -233 544 -265 b 593 -232 590 -265 593 -247 b 592 -210 593 -225 593 -217 l 533 201 b 533 226 532 208 533 218 l 542 221 b 940 -11 615 168 858 -11 b 967 29 964 -11 967 11 b 875 444 967 156 900 318 l 876 444 b 1235 257 931 403 1176 257 b 1261 294 1258 257 1261 275 b 1135 700 1261 367 1144 671 l 1135 703 b 1476 601 1182 681 1428 601 b 1514 633 1497 601 1514 610 b 1343 1033 1514 690 1360 996 b 1371 1099 1353 1049 1371 1081 b 1357 1111 1371 1107 1365 1111 z m 1258 821 b 1300 867 1258 838 1282 867 b 1315 857 1306 867 1315 864 b 1285 822 1315 850 1290 828 b 1307 775 1283 806 1297 788 b 1347 819 1325 788 1317 819 b 1356 810 1353 819 1356 815 b 1329 751 1356 792 1329 756 b 1365 742 1329 744 1360 742 b 1400 772 1374 742 1394 765 b 1406 774 1403 774 1404 774 b 1418 758 1414 774 1418 765 b 1354 714 1418 738 1374 714 b 1258 821 1313 714 1258 781 z m 1074 592 b 1119 449 1099 592 1115 469 b 1119 419 1121 446 1119 424 b 1106 408 1117 413 1113 408 b 994 489 1071 408 1021 468 b 990 499 994 490 990 497 b 1001 514 990 506 994 514 b 1092 442 1004 514 1079 450 b 1065 572 1092 486 1065 535 b 1067 588 1065 578 1065 582 z m 701 285 b 747 339 701 315 724 328 l 756 339 b 832 238 815 339 832 288 b 788 182 832 213 815 182 b 701 285 744 182 701 246 z m 765 314 b 731 279 746 314 731 297 b 783 210 731 254 756 210 b 807 246 801 210 807 232 b 765 314 807 269 794 314 z m 346 101 b 354 104 349 103 351 104 b 418 -4 376 104 406 14 b 465 69 432 3 449 69 b 476 57 472 69 476 63 b 417 -33 476 36 440 -33 b 340 89 390 -33 349 72 b 346 101 339 92 344 99 z "},"g":{"ha":1224,"x_min":0,"x_max":0,"o":"m 914 883 b 251 557 622 883 453 557 b 178 757 125 557 101 681 b 161 782 190 769 183 782 b 667 114 -79 782 -40 114 b 994 660 1275 114 1321 632 b 914 883 1119 711 1115 883 z "},"h":{"ha":965,"x_min":0,"x_max":0,"o":"m 758 981 b 485 836 656 981 551 911 b 417 756 461 810 444 778 b 307 779 382 771 344 779 b 28 440 132 779 28 599 b 86 232 28 367 51 296 b 372 28 136 140 264 28 b 439 44 396 28 418 33 b 938 754 663 165 938 486 b 758 981 938 867 888 981 z m 507 676 b 751 864 507 740 689 864 b 824 769 808 864 824 818 b 357 110 824 531 564 200 b 142 428 232 165 142 289 b 333 664 142 549 199 664 b 357 647 350 664 357 664 b 301 449 357 643 301 528 b 386 313 301 393 315 313 b 543 557 496 313 543 469 b 507 676 543 619 507 660 z m 393 431 b 432 556 393 458 417 528 l 433 553 l 433 494 b 396 422 433 468 415 439 z "},"i":{"ha":821,"x_min":0,"x_max":0,"o":"m 651 1383 b 340 1149 511 1383 403 1261 l 338 1149 b 171 1299 307 1208 249 1299 b 28 1065 67 1299 28 1147 b 328 615 28 754 325 625 b 242 456 332 601 242 481 b 335 453 242 435 310 449 b 432 -46 326 253 432 129 b 261 -394 432 -215 261 -356 b 274 -411 261 -400 267 -411 b 332 -372 301 -411 315 -392 b 493 -33 417 -271 493 -172 b 382 446 493 133 382 276 l 382 463 b 468 513 407 469 468 479 b 396 633 468 550 396 596 b 400 646 396 638 396 643 b 793 1250 556 778 793 1019 b 651 1383 793 1333 733 1383 z "},"j":{"ha":778,"x_min":0,"x_max":0,"o":"m 750 589 b 736 601 750 597 744 601 b 697 588 722 601 710 593 b 272 488 557 529 425 488 b 151 500 231 488 193 494 b 81 517 129 503 103 517 b 60 493 64 517 60 510 b 178 344 60 439 118 344 b 303 388 224 344 258 388 b 475 340 336 388 400 340 b 617 392 528 340 576 358 b 750 589 649 419 750 550 z m 739 660 b 735 672 739 665 738 668 b 535 779 690 729 608 779 b 315 628 393 779 393 628 b 142 733 256 628 211 733 b 28 608 92 733 28 657 b 261 514 28 525 201 514 b 514 547 346 514 432 522 b 739 660 556 560 739 613 z "},"k":{"ha":910,"x_min":0,"x_max":0,"o":"m 749 851 b 456 536 590 851 456 689 l 457 522 b 504 549 468 531 490 549 l 510 547 b 472 435 511 521 485 461 l 472 432 b 506 442 481 438 496 442 l 513 442 b 457 335 514 422 469 353 l 479 335 l 482 332 b 419 174 483 321 429 185 l 417 176 l 415 183 b 422 282 415 217 422 249 l 422 292 b 400 288 414 293 408 288 b 399 290 399 288 399 290 b 454 400 399 306 446 379 l 451 400 b 401 372 443 394 410 372 l 400 372 b 439 479 399 383 432 458 l 439 482 b 372 433 433 476 378 433 b 369 438 371 433 369 435 b 435 621 369 463 435 574 b 435 628 435 622 435 625 b 225 792 413 717 336 792 b 394 0 -197 792 154 0 b 749 851 638 0 1114 851 z "},"l":{"ha":807,"x_min":0,"x_max":0,"o":"m 360 831 b 235 729 299 831 260 779 l 232 729 b 133 807 211 764 178 807 b 28 636 58 807 28 694 b 286 411 28 483 144 411 b 300 411 290 411 296 410 b 415 594 324 415 404 565 b 433 711 428 628 433 675 b 360 831 433 758 422 831 z m 238 636 b 346 775 275 636 290 775 b 375 713 371 775 375 731 b 269 446 375 607 326 531 l 260 446 b 72 638 157 446 72 536 b 122 747 72 665 88 747 b 238 636 163 747 199 636 z m 719 731 b 621 672 678 731 649 700 l 618 672 b 546 717 600 696 578 717 b 465 593 492 717 465 636 b 576 425 465 532 501 425 b 779 657 668 425 779 569 b 719 731 779 692 758 731 z m 614 590 b 708 671 647 590 674 671 b 718 661 715 671 718 667 b 650 533 718 638 668 551 b 563 469 625 507 594 486 b 513 576 521 482 513 539 b 544 664 513 594 518 664 b 614 590 571 664 583 590 z m 483 431 b 418 368 447 431 424 401 l 415 368 b 364 385 406 368 385 385 b 308 311 326 385 308 343 b 417 206 308 247 354 206 b 536 338 511 206 536 244 b 483 431 536 372 528 431 z m 436 279 b 478 389 471 279 449 378 b 490 344 489 389 490 351 b 450 243 490 322 483 243 l 413 243 b 350 308 376 243 350 274 b 365 342 350 318 353 342 b 436 279 383 342 411 279 z "},"m":{"ha":1618,"x_min":0,"x_max":0,"o":"m 1053 1108 b 824 957 1024 1108 824 986 b 936 571 824 947 926 603 b 936 564 936 569 936 565 l 774 817 b 696 888 757 842 731 888 b 540 768 663 888 540 801 b 576 689 540 738 568 715 b 374 265 408 619 374 428 l 374 246 b 286 128 350 210 301 163 b 258 586 260 222 269 476 b 219 643 256 608 246 643 b 53 486 179 643 81 518 b 28 431 39 469 28 453 b 38 376 28 413 33 394 l 160 -87 b 199 -139 165 -108 172 -139 b 519 -40 243 -139 465 -40 b 610 -68 542 -40 574 -68 b 869 131 738 -68 819 24 b 897 211 882 157 882 188 b 999 85 900 199 979 106 b 1025 79 1004 79 1019 79 b 1182 136 1053 79 1182 101 b 1154 421 1182 218 1163 336 l 1154 428 b 1289 189 1189 386 1229 189 b 1590 331 1324 189 1590 283 b 1540 442 1590 357 1575 442 b 1372 401 1519 442 1400 408 b 1360 401 1369 401 1363 401 b 1357 418 1358 407 1357 413 l 1357 443 b 1556 525 1382 451 1556 506 b 1481 700 1556 569 1542 700 b 1304 606 1449 700 1335 606 b 1272 689 1285 606 1276 672 l 1275 692 b 1482 846 1328 707 1482 783 b 1432 1007 1482 861 1440 985 b 1349 1108 1418 1044 1399 1108 b 1104 961 1297 1108 1143 988 l 1100 961 b 1053 1108 1099 990 1093 1108 z m 593 453 b 653 193 690 501 731 193 b 593 453 581 193 507 410 z "},"n":{"ha":367,"x_min":0,"x_max":0,"o":"m 132 1322 b 69 1250 93 1322 69 1285 b 135 1110 69 1203 100 1140 b 111 901 135 1092 115 929 b 28 803 54 899 28 856 b 138 636 28 717 69 676 l 139 633 l 139 476 l 131 476 b 57 407 82 476 57 460 b 160 283 57 340 104 306 l 163 281 b 158 231 158 264 158 247 b 160 128 158 197 163 163 b 81 49 106 133 81 99 b 157 -83 81 -49 133 -40 b 153 -169 160 -110 153 -142 b 183 -272 153 -194 147 -272 b 207 -212 208 -272 207 -231 b 201 -110 207 -178 201 -144 l 201 -90 b 321 68 261 -60 321 -6 b 261 143 321 104 301 143 b 201 121 239 143 219 133 b 194 278 201 174 201 226 b 283 424 229 310 283 375 b 233 481 283 450 261 481 b 182 458 214 481 196 469 b 172 636 186 519 172 576 b 200 661 172 643 194 656 b 272 833 229 694 272 789 b 219 889 272 864 254 889 b 179 879 206 889 193 879 l 176 879 l 176 910 b 179 1094 176 971 179 1033 l 182 1097 b 339 1251 242 1119 339 1176 b 297 1297 339 1278 324 1297 b 200 1240 260 1297 224 1265 l 197 1240 b 132 1322 189 1269 168 1322 z m 101 1235 b 125 1290 101 1247 110 1290 b 192 1186 146 1290 171 1186 b 293 1260 211 1186 251 1260 l 300 1260 l 303 1257 l 303 1253 b 164 1128 303 1214 200 1128 b 101 1235 129 1128 101 1207 z m 89 857 b 97 860 90 857 96 860 b 143 794 124 860 119 794 b 215 851 165 794 194 851 b 225 844 219 851 224 849 l 225 836 b 151 668 225 771 178 724 b 74 811 100 697 74 753 b 89 857 74 826 76 846 z m 92 418 b 114 442 92 428 106 442 b 164 396 132 442 149 396 b 229 438 176 396 211 438 b 236 428 235 438 236 432 b 172 313 236 388 196 342 l 167 311 b 92 381 139 322 92 346 z m 178 46 b 257 101 201 46 229 92 b 272 71 267 104 272 76 b 185 -50 272 28 218 -26 l 175 -47 b 125 60 135 -14 125 7 b 132 86 125 64 125 86 b 178 46 149 86 157 46 z "},"o":{"ha":1551,"x_min":0,"x_max":0,"o":"m 1115 1349 b 1071 1225 1072 1349 1071 1254 b 1225 994 1071 1121 1111 1015 b 1197 889 1225 988 1201 901 b 1107 664 1175 811 1144 736 b 1115 717 1107 682 1115 699 b 1050 935 1115 750 1118 935 b 979 874 1024 935 994 893 b 935 725 947 832 935 778 b 1022 526 935 653 960 569 l 1022 521 b 782 249 953 422 878 324 l 782 250 b 854 490 814 331 854 399 b 811 556 854 518 847 556 b 800 554 808 556 803 556 b 650 261 706 497 650 368 b 669 158 650 217 669 178 b 454 -10 669 133 485 10 b 481 197 453 -3 481 150 b 394 426 481 247 464 426 b 271 196 328 426 271 251 b 376 -56 271 110 296 -8 l 376 -57 b 83 -185 301 -110 171 -153 b 28 -228 67 -190 28 -207 b 61 -253 28 -244 47 -253 b 417 -103 136 -253 415 -103 b 544 -158 435 -103 515 -150 b 742 -185 608 -176 675 -185 b 942 -101 789 -185 942 -169 b 714 0 942 -64 753 0 b 567 -7 665 0 615 -7 l 558 -7 b 710 108 606 29 658 79 b 896 63 764 74 832 63 b 1085 129 935 63 1085 78 b 914 206 1085 158 943 206 b 826 200 885 206 856 200 l 814 200 b 975 368 869 254 925 308 b 1075 501 1011 410 1039 461 b 1085 506 1076 504 1082 506 b 1113 496 1094 506 1103 499 b 1211 488 1142 488 1181 488 b 1453 586 1296 488 1396 521 b 1471 622 1461 596 1471 608 b 1332 668 1471 668 1363 668 b 1156 629 1267 668 1214 656 l 1153 629 l 1153 631 b 1278 1007 1211 750 1247 878 b 1325 1022 1290 1015 1310 1017 b 1524 1221 1400 1050 1524 1132 b 1490 1258 1524 1244 1515 1258 b 1360 1200 1456 1258 1389 1222 b 1297 1138 1336 1182 1319 1157 b 1306 1265 1303 1179 1306 1222 b 1294 1321 1306 1272 1306 1321 b 1283 1313 1290 1321 1286 1315 b 1250 1119 1271 1250 1279 1176 b 1115 1349 1231 1174 1186 1349 z m 1108 1221 b 1119 1290 1108 1244 1113 1267 b 1213 1072 1160 1254 1213 1125 l 1213 1067 b 1147 1185 1194 1107 1171 1149 l 1143 1188 b 1138 1175 1139 1185 1138 1179 b 1197 1042 1138 1136 1181 1076 b 1108 1221 1133 1069 1108 1157 z m 1296 1085 b 1490 1225 1329 1142 1419 1228 l 1490 1217 b 1288 1039 1490 1139 1356 1054 l 1288 1042 b 1396 1143 1303 1053 1396 1129 b 1388 1147 1396 1147 1390 1147 b 1296 1082 1364 1147 1313 1099 z m 1293 1076 b 1290 1079 1292 1076 1290 1078 b 1293 1082 1290 1081 1292 1082 b 1294 1079 1294 1082 1294 1081 b 1293 1076 1294 1078 1294 1076 z m 978 740 b 1042 886 978 808 996 838 l 1044 886 b 1068 774 1067 864 1068 803 b 1042 606 1068 733 1061 640 b 1014 738 1040 625 1032 738 b 1010 713 1007 738 1010 717 b 1025 583 1010 668 1025 625 l 1025 576 b 978 740 986 601 978 697 z m 1150 624 b 1147 626 1149 624 1147 625 b 1150 629 1147 628 1149 629 b 1151 626 1151 629 1151 628 b 1150 624 1151 625 1151 624 z m 1143 571 b 1307 625 1169 606 1264 625 b 1397 618 1336 625 1369 625 b 1407 613 1400 617 1407 617 l 1406 611 b 1199 539 1357 556 1269 539 b 1144 549 1188 539 1151 539 b 1276 588 1158 551 1276 571 b 1271 589 1276 589 1271 589 l 1240 589 b 1150 571 1236 589 1158 572 b 1143 571 1147 571 1146 571 z m 694 251 b 801 496 694 346 725 436 b 807 482 806 493 807 488 b 710 222 807 400 739 297 b 729 318 707 236 729 299 l 729 346 l 725 347 b 694 238 715 347 697 253 z m 392 365 l 393 365 b 428 154 422 315 428 211 b 404 3 428 113 425 39 b 369 215 401 38 390 199 b 367 208 367 215 367 210 b 379 18 367 144 375 81 b 379 0 379 13 379 6 b 319 185 343 29 319 139 b 383 361 319 249 340 313 z m 779 243 b 776 246 778 243 776 244 b 779 249 776 247 778 249 b 781 246 781 249 781 247 b 779 243 781 244 781 243 z m 810 197 b 813 200 810 199 811 200 l 813 196 z m 779 150 b 856 161 803 158 829 161 b 1013 125 889 161 993 157 b 913 107 983 110 943 107 b 774 135 869 107 810 113 b 835 133 794 135 814 133 b 886 142 843 133 886 135 b 879 146 886 143 881 146 b 779 150 851 153 808 150 z m 499 -62 b 651 -40 546 -43 600 -40 b 879 -108 729 -40 819 -54 l 879 -110 b 732 -140 851 -137 769 -140 b 492 -85 683 -140 519 -129 l 513 -85 b 651 -90 558 -85 606 -90 l 672 -90 b 681 -79 675 -89 681 -83 b 632 -69 681 -74 639 -69 b 499 -62 588 -67 543 -62 z "},"p":{"ha":372,"x_min":0,"x_max":0,"o":"m 204 694 b 131 581 168 694 164 603 b 28 524 103 563 28 571 b 131 440 28 451 126 496 b 179 332 133 403 122 332 b 246 464 235 332 225 431 b 344 536 267 496 344 489 b 231 601 344 608 239 553 b 204 694 228 618 244 694 z "},"q":{"ha":806,"x_min":0,"x_max":0,"o":"m 586 858 b 200 775 572 942 200 906 b 311 683 200 715 265 692 b 28 490 233 660 28 592 b 226 381 28 390 151 381 l 258 381 l 256 378 b 76 214 197 351 76 286 b 247 118 76 126 182 118 b 778 260 488 118 778 203 b 763 293 778 272 769 283 b 586 858 639 474 619 653 z "},"r":{"ha":1104,"x_min":0,"x_max":0,"o":"m 849 1093 b 668 928 826 1093 678 951 b 663 889 664 915 663 901 b 703 663 663 815 703 717 b 700 650 703 660 701 653 b 375 264 596 518 493 383 b 240 131 332 219 288 169 l 217 111 b 121 199 203 125 136 199 b 28 -103 93 199 28 -57 b 68 -133 28 -126 49 -133 b 354 -60 104 -133 354 -97 b 250 79 354 -40 268 60 l 250 81 b 463 283 325 142 397 213 b 743 619 561 392 649 508 l 750 626 b 1017 639 836 643 929 628 l 1026 651 b 1076 900 1040 713 1076 843 b 1051 929 1076 918 1071 929 b 972 922 1025 929 999 922 l 956 922 l 956 925 b 993 1003 967 942 993 983 b 981 1024 993 1011 992 1024 b 906 953 946 1024 926 968 l 903 957 b 849 1093 901 986 888 1093 z "},"s":{"ha":1353,"x_min":0,"x_max":0,"o":"m 449 957 b 42 683 222 957 93 925 b 28 564 33 644 28 604 b 476 228 28 304 258 235 b 865 215 606 224 736 215 b 983 217 904 215 944 219 b 1160 0 1001 204 1117 0 b 1199 175 1200 0 1194 146 b 1261 303 1213 286 1199 235 b 1324 656 1335 385 1324 553 b 993 954 1324 910 1232 949 b 449 957 813 958 631 957 z "},"t":{"ha":1550,"x_min":0,"x_max":0,"o":"m 611 897 b 475 724 522 897 475 803 b 633 400 475 608 556 481 b 728 307 664 368 697 339 b 319 181 624 233 447 181 b 46 367 25 181 92 367 b 346 133 7 367 1 133 b 628 189 438 133 543 154 b 774 267 681 211 724 242 b 778 268 775 268 776 268 b 883 210 792 268 863 219 b 1197 133 993 158 1075 133 b 1510 364 1490 133 1551 364 b 1219 181 1456 364 1478 181 b 828 307 1088 181 935 232 b 951 894 1040 471 1196 894 b 778 765 876 894 815 822 b 611 897 742 822 685 897 z m 749 369 b 651 796 592 494 515 796 b 796 599 732 796 761 599 b 924 788 824 599 839 788 b 808 369 1043 788 883 442 b 778 349 801 363 789 349 b 749 369 767 349 757 364 z "},"u":{"ha":640,"x_min":0,"x_max":0,"o":"m 351 883 b 28 549 207 883 28 693 b 44 499 28 539 29 499 b 129 588 50 499 110 575 b 454 808 222 647 454 660 b 351 883 454 863 397 883 z m 464 651 b 113 519 349 651 203 589 b 65 458 97 508 65 478 b 85 442 65 449 76 442 b 117 454 97 442 104 453 b 181 457 138 457 160 457 b 326 446 231 457 279 453 b 396 435 349 443 375 435 l 471 435 b 593 553 536 435 593 486 b 464 651 593 625 526 651 z m 194 417 b 110 394 179 417 104 421 l 113 392 b 278 304 172 371 226 340 b 501 188 346 257 413 188 b 613 253 540 188 613 203 b 194 417 613 383 285 417 z "},"v":{"ha":1521,"x_min":0,"x_max":0,"o":"m 1300 1075 b 108 414 836 1075 336 825 b 28 174 69 343 28 257 l 28 163 b 44 156 32 157 38 156 b 254 246 75 156 221 228 b 289 -93 278 214 275 -33 b 310 -108 292 -103 300 -108 b 332 -90 321 -108 329 -101 b 401 124 349 -14 365 53 b 1429 753 576 472 1039 753 b 1493 774 1444 753 1493 746 b 1317 882 1493 819 1347 856 b 1315 885 1317 883 1315 883 b 1328 1035 1315 935 1328 985 b 1300 1075 1328 1050 1321 1075 z "},"w":{"ha":1149,"x_min":0,"x_max":0,"o":"m 1075 1099 b 939 829 988 1099 939 896 b 953 769 939 807 953 789 b 826 544 953 763 843 547 b 740 835 826 596 796 835 b 719 822 732 835 725 828 b 693 668 704 772 693 719 b 724 538 693 624 701 575 b 782 478 739 513 767 501 l 782 475 b 551 242 717 386 638 310 l 549 242 b 558 310 551 263 558 289 l 558 440 b 511 556 558 467 546 556 b 446 386 468 556 446 419 b 479 236 446 335 458 283 l 494 201 b 276 64 494 186 294 75 l 274 64 b 308 242 274 94 308 183 l 308 338 b 236 494 308 372 279 494 b 140 264 179 494 140 310 b 218 39 140 183 168 103 l 218 36 b 49 -29 163 11 106 -7 b 28 -54 39 -33 28 -42 b 56 -67 28 -68 46 -67 b 253 -11 125 -67 189 -36 b 536 -121 335 -62 435 -121 b 704 -68 565 -121 704 -125 b 682 -36 704 -54 693 -43 b 408 47 596 19 511 47 l 371 46 l 374 49 b 539 154 394 63 521 144 b 542 154 540 154 540 154 b 624 119 551 154 607 124 b 792 99 676 106 738 99 b 889 140 819 99 889 100 l 889 147 l 885 154 b 633 229 803 213 733 226 b 810 413 692 290 761 343 b 835 439 815 421 824 439 b 921 432 863 439 892 432 b 1121 508 964 432 1121 449 b 1051 539 1121 539 1072 539 b 933 526 1011 539 971 533 b 889 515 921 524 900 515 l 885 515 l 885 517 b 1000 733 929 588 964 658 b 1063 788 1013 758 1043 769 b 1118 990 1107 831 1118 931 b 1075 1099 1118 1017 1115 1099 z "},"x":{"ha":914,"x_min":0,"x_max":0,"o":"m 258 1014 b 28 731 115 1014 28 858 b 121 475 28 639 61 544 b 300 174 225 354 300 318 b 233 -40 300 72 239 -31 b 263 -49 226 -54 251 -61 b 353 174 292 -17 353 83 b 157 733 353 371 157 525 b 282 906 157 813 188 906 b 456 608 414 906 431 638 b 485 594 463 600 475 594 b 511 639 504 594 506 625 b 732 842 546 719 636 842 b 521 232 935 842 642 393 b 571 207 504 210 550 189 b 886 826 694 319 886 656 b 774 986 886 897 860 986 b 499 739 635 986 543 856 l 496 739 b 258 1014 475 854 393 1014 z "},"y":{"ha":1296,"x_min":0,"x_max":0,"o":"m 900 1110 b 64 1063 583 1129 249 1103 b 29 922 25 1054 29 956 l 29 583 b 435 499 29 429 342 499 b 438 40 438 346 438 193 b 435 -153 438 -8 435 -104 b 710 -143 435 -265 710 -235 b 660 524 681 226 681 324 b 986 581 769 547 881 535 b 1268 892 1075 618 1268 783 b 900 1110 1268 1013 1000 1104 z "},"z":{"ha":1542,"x_min":0,"x_max":0,"o":"m 918 1129 b 42 76 425 1129 117 490 b 28 -37 35 39 28 0 b 79 -126 28 -75 32 -126 b 329 -121 163 -126 243 -121 b 357 -89 346 -121 353 -103 b 389 69 371 -37 376 17 b 594 582 433 250 499 422 b 896 810 660 692 756 810 b 1140 478 1072 810 1115 615 b 1193 83 1164 347 1181 215 b 1208 -106 1199 32 1199 -61 b 1381 -151 1221 -162 1338 -149 b 1451 -158 1404 -153 1426 -158 b 1514 -121 1472 -158 1514 -151 b 1508 -76 1514 -106 1511 -92 l 1417 497 b 918 1129 1375 760 1236 1129 z m 872 674 b 567 282 726 674 613 399 b 468 -72 535 199 468 14 b 494 -126 468 -92 471 -122 b 658 -151 546 -135 607 -151 b 690 -126 672 -151 685 -137 b 706 -21 703 -100 703 -50 b 858 388 713 40 800 388 b 890 317 878 388 886 332 b 897 275 893 303 896 289 b 935 -71 907 160 917 43 b 1028 -160 946 -136 960 -160 b 1099 -117 1063 -160 1099 -164 b 1033 422 1099 64 1067 244 b 872 674 1018 504 981 674 z m 829 131 b 757 -67 788 131 757 -33 b 796 -153 757 -89 765 -153 b 869 32 854 -153 869 -8 b 829 131 869 57 867 131 z "},"{":{"ha":718,"x_min":0,"x_max":0,"o":"m 549 1214 b 150 642 147 1214 254 760 b 28 497 114 601 28 556 b 135 376 28 446 106 414 b 467 -275 271 197 97 -275 b 690 -137 549 -275 690 -258 b 561 -32 690 -46 617 -32 b 486 424 464 -32 565 281 b 449 481 475 443 461 463 b 528 700 515 542 528 613 b 574 1014 528 785 482 1014 b 667 1119 640 1014 667 1061 b 549 1214 667 1182 639 1214 z "},"|":{"ha":442,"x_min":0,"x_max":0,"o":"m 226 1011 b 29 504 0 1011 29 664 b 219 0 29 168 33 0 b 414 369 385 0 414 124 l 414 633 b 226 1011 414 858 379 1011 z "},"}":{"ha":718,"x_min":0,"x_max":0,"o":"m 169 1214 b 51 1119 79 1214 51 1182 b 144 1014 51 1061 78 1014 b 190 700 236 1014 190 785 b 269 481 190 613 203 542 b 232 424 257 463 243 443 b 157 -32 153 281 254 -32 b 28 -137 101 -32 28 -46 b 251 -275 28 -258 169 -275 b 583 376 621 -275 447 197 b 690 497 613 414 690 446 b 568 642 690 556 604 601 b 169 1214 464 760 571 1214 z "},"~":{"ha":939,"x_min":0,"x_max":0,"o":"m 694 694 b 344 608 533 694 460 608 b 150 661 274 608 219 661 b 28 563 75 661 28 610 b 199 386 28 444 121 386 b 533 479 340 386 419 479 b 793 406 642 479 704 406 b 911 511 863 406 911 449 b 694 694 911 615 817 694 z "},"¡":{"ha":468,"x_min":0,"x_max":0,"o":"m 240 -67 b 440 310 400 -67 440 58 b 246 668 440 481 429 668 b 28 251 32 668 28 403 b 240 -67 28 53 50 -67 z m 243 708 b 256 1004 481 708 464 1004 b 243 708 42 1004 51 708 z "},"¢":{"ha":946,"x_min":0,"x_max":0,"o":"m 556 1024 b 481 1 -171 1024 -100 25 b 910 303 685 -7 910 74 b 719 479 910 408 821 479 b 526 285 549 479 667 285 b 544 799 331 285 360 799 b 579 758 567 799 579 778 b 549 654 579 724 549 692 b 694 546 549 581 617 546 b 918 778 831 546 918 653 b 556 1024 918 975 715 1024 z m 310 206 b 310 11 310 99 310 22 b 500 -239 310 -99 344 -239 b 694 38 636 -239 694 -131 l 694 213 l 694 233 z m 507 1250 b 308 1018 343 1250 308 1138 b 308 874 308 1006 308 951 b 308 839 308 863 308 851 l 694 885 l 694 906 l 694 1057 b 507 1250 694 1161 651 1250 z "},"£":{"ha":976,"x_min":0,"x_max":0,"o":"m 646 1063 b 197 601 278 1063 206 701 b 88 474 194 567 88 586 b 210 368 88 389 139 375 b 28 151 169 278 28 294 b 281 0 28 -7 171 0 b 815 10 389 0 708 0 b 942 135 879 15 942 47 b 818 250 942 232 879 250 b 503 225 729 250 590 233 l 503 228 b 556 374 532 271 547 322 b 681 493 638 386 681 396 b 553 615 681 582 640 614 b 542 642 542 618 542 632 b 653 861 542 703 568 861 b 696 810 685 861 696 839 b 685 692 696 769 685 731 b 794 586 685 624 726 586 b 949 789 899 586 949 701 b 646 1063 949 976 814 1063 z "},"¤":{"ha":588,"x_min":0,"x_max":0,"o":"m 304 733 b 282 335 24 733 1 335 b 304 733 553 335 549 733 z m 299 404 b 325 381 307 396 317 388 b 546 301 429 290 500 257 b 433 550 583 339 538 433 z m 144 536 b 50 297 40 422 0 344 b 286 400 86 261 175 301 z m 299 683 b 47 785 207 768 100 847 b 128 581 11 742 65 656 b 144 561 133 574 139 568 z m 442 554 b 460 575 447 561 454 568 b 531 794 532 658 588 747 b 301 692 482 833 382 763 z m 296 614 b 292 479 378 614 379 479 b 296 614 197 479 196 614 z "},"¥":{"ha":1007,"x_min":0,"x_max":0,"o":"m 236 1025 b 28 781 86 1025 28 900 b 251 390 28 449 79 390 b 499 21 354 390 208 21 b 744 386 807 21 665 386 b 978 703 831 386 978 403 b 794 1007 978 818 990 1007 b 613 800 671 1007 613 932 b 519 615 613 682 624 615 b 236 1025 318 615 575 1025 z m 511 394 b 199 315 390 394 190 394 b 501 249 206 251 415 249 b 794 324 690 249 794 265 b 511 394 794 368 683 394 z m 511 229 b 199 150 390 229 190 229 b 501 83 206 86 415 83 b 794 158 690 83 794 100 b 511 229 794 203 683 229 z "},"§":{"ha":963,"x_min":0,"x_max":0,"o":"m 596 1043 b 274 824 460 1043 274 965 b 638 472 274 626 638 594 b 594 439 638 447 617 439 b 553 192 576 439 469 192 b 935 444 703 192 935 261 b 581 788 935 676 581 618 b 633 867 581 813 603 867 b 789 678 683 867 603 678 b 596 1043 1000 678 982 1043 z m 419 851 b 97 632 283 851 97 774 b 461 281 97 435 461 403 b 418 247 461 256 440 247 b 183 428 306 247 328 428 b 28 281 94 428 28 371 b 376 0 28 92 213 0 b 758 253 526 0 758 69 b 404 596 758 485 404 426 b 457 675 404 621 426 675 z "},"¨":{"ha":674,"x_min":0,"x_max":0,"o":"m 190 972 b 157 704 -1 972 -35 704 b 190 972 349 704 367 972 z m 524 972 b 490 704 332 972 299 704 b 524 972 682 704 700 972 z "},"©":{"ha":1196,"x_min":0,"x_max":0,"o":"m 622 1082 b 557 0 -157 1082 -161 0 b 622 1082 1347 0 1372 1082 z m 585 203 b 608 888 92 203 104 888 b 585 203 1097 888 1057 203 z m 611 826 b 569 263 211 826 250 276 b 806 429 682 258 806 303 b 701 526 806 488 757 526 b 594 419 607 526 672 419 b 606 701 488 419 503 701 b 624 679 617 701 624 690 b 607 622 624 661 607 643 b 688 563 607 582 644 563 b 811 690 763 563 811 622 b 611 826 811 799 699 826 z "},"ª":{"ha":615,"x_min":0,"x_max":0,"o":"m 319 983 b 28 450 192 983 28 560 b 136 392 28 394 93 392 b 313 525 281 392 260 525 b 433 393 364 525 331 393 l 499 393 b 586 482 556 393 586 425 b 319 983 586 597 456 983 z m 279 688 b 314 786 279 701 303 786 b 335 690 324 786 335 703 b 279 688 335 663 279 665 z "},"«":{"ha":1232,"x_min":0,"x_max":0,"o":"m 582 751 b 28 365 415 751 28 489 b 532 0 28 253 335 0 b 661 92 607 0 661 33 b 443 385 661 175 443 253 b 667 671 443 453 667 553 b 582 751 667 725 633 751 z m 1119 751 b 565 365 953 751 565 489 b 1069 0 565 253 872 0 b 1199 92 1144 0 1199 33 b 981 385 1199 203 981 311 b 1204 671 981 453 1204 553 b 1119 751 1204 725 1171 751 z "},"®":{"ha":1196,"x_min":0,"x_max":0,"o":"m 592 829 b 354 688 499 829 354 813 l 354 628 b 357 442 354 567 357 503 b 457 296 358 371 368 296 b 554 378 525 296 554 333 b 594 490 554 407 550 490 b 728 300 656 490 575 300 b 847 424 810 300 847 361 b 790 558 847 500 790 526 b 833 689 790 588 833 622 b 592 829 833 785 686 829 z m 578 615 b 564 707 554 615 564 692 b 578 615 649 707 621 615 z m 622 1082 b 557 0 -157 1082 -161 0 b 622 1082 1347 0 1372 1082 z m 585 203 b 608 888 92 203 104 888 b 585 203 1097 888 1057 203 z "},"°":{"ha":472,"x_min":0,"x_max":0,"o":"m 242 989 b 238 590 -39 989 -43 590 b 242 989 508 590 514 989 z m 229 728 b 233 863 135 728 133 863 b 229 728 315 863 317 728 z "},"²":{"ha":565,"x_min":0,"x_max":0,"o":"m 313 972 b 28 758 175 972 28 893 b 118 679 28 701 67 679 b 311 853 263 679 233 853 b 353 804 336 853 353 832 b 38 499 353 624 38 658 b 157 400 38 411 79 400 b 431 408 249 400 340 404 b 442 525 568 411 536 525 b 250 515 378 525 313 515 b 536 778 271 546 536 547 b 313 972 536 917 435 972 z "},"³":{"ha":556,"x_min":0,"x_max":0,"o":"m 285 971 b 67 811 174 971 67 922 b 149 738 67 765 106 738 b 278 844 251 738 224 844 b 318 806 300 844 318 828 b 221 690 318 743 221 764 b 318 604 221 619 318 657 b 279 557 318 582 303 557 b 144 656 215 557 218 656 b 29 557 86 656 29 619 b 239 411 29 454 124 411 b 528 615 381 411 528 474 b 444 751 528 708 444 729 b 472 838 444 778 472 796 b 285 971 472 938 367 971 z "},"´":{"ha":332,"x_min":0,"x_max":0,"o":"m 186 999 b 29 715 121 999 36 783 b 111 649 25 676 71 649 b 304 910 182 649 304 844 b 186 999 304 957 224 999 z "},"·":{"ha":340,"x_min":0,"x_max":0,"o":"m 190 657 b 157 389 -1 657 -35 389 b 190 657 349 389 367 657 z "},"¸":{"ha":301,"x_min":0,"x_max":0,"o":"m 186 96 b 31 -97 121 96 31 -40 b 113 -203 31 -140 113 -147 b 57 -244 113 -235 86 -244 b -72 -197 -8 -244 -28 -197 b -204 -424 -143 -197 -204 -364 b 78 -574 -204 -547 -14 -574 b 404 -274 257 -574 404 -467 b 246 -58 404 -93 246 -115 b 267 35 246 -31 267 -17 b 186 96 267 67 228 96 z "},"¹":{"ha":368,"x_min":0,"x_max":0,"o":"m 340 824 b 213 972 340 932 322 972 b 29 826 108 972 29 893 b 81 779 29 799 54 779 b 117 799 106 779 107 799 b 107 571 128 799 107 651 b 213 414 107 488 106 414 b 340 579 326 414 340 493 b 340 824 340 661 340 742 z "},"º":{"ha":543,"x_min":0,"x_max":0,"o":"m 271 971 b 271 419 -26 971 -78 419 b 271 971 588 419 603 971 z m 229 693 b 285 860 225 736 228 860 b 293 857 289 860 292 858 z m 339 743 b 282 558 343 697 343 558 b 267 564 278 558 271 561 z "},"»":{"ha":1232,"x_min":0,"x_max":0,"o":"m 650 751 b 565 671 599 751 565 725 b 789 385 565 553 789 453 b 571 92 789 253 571 175 b 700 0 571 33 625 0 b 1204 365 897 0 1204 253 b 650 751 1204 489 817 751 z m 113 751 b 28 671 61 751 28 725 b 251 385 28 553 251 453 b 33 92 251 311 33 203 b 163 0 33 33 88 0 b 667 365 360 0 667 253 b 113 751 667 489 279 751 z "},"¿":{"ha":988,"x_min":0,"x_max":0,"o":"m 450 0 b 960 394 672 0 960 139 b 690 664 960 529 826 664 b 481 508 611 664 481 599 b 551 354 481 442 551 408 b 500 290 551 326 529 290 b 403 460 418 290 403 400 b 418 576 403 496 407 543 b 642 850 456 690 642 711 b 486 982 642 932 561 982 b 275 758 318 982 353 843 b 28 397 172 646 28 581 b 450 0 28 163 224 0 z m 486 1018 b 665 1181 576 1018 665 1083 b 546 1290 665 1246 610 1290 b 365 1131 454 1290 365 1229 b 486 1018 365 1060 417 1018 z "},"ƒ":{"ha":993,"x_min":0,"x_max":0,"o":"m 611 1024 b 114 513 243 1024 111 768 b 65 -300 129 -132 131 -300 b 28 -257 38 -300 28 -278 b 50 -161 28 -222 50 -196 b -96 -67 50 -92 -39 -67 b 63 -535 -418 -67 -414 -535 b 631 799 917 -535 251 799 b 665 758 653 799 665 778 b 635 654 665 724 635 692 b 781 546 635 581 703 546 b 957 758 917 546 957 633 b 611 1024 957 940 771 1024 z m 329 406 b 17 297 208 406 8 406 b 319 204 24 208 233 204 b 613 308 508 204 613 226 b 329 406 613 369 501 406 z "},"ˆ":{"ha":597,"x_min":0,"x_max":0,"o":"m 307 972 b 28 663 229 972 28 751 b 97 606 28 622 63 606 b 293 722 185 606 238 722 b 467 615 333 722 388 615 b 569 704 510 615 569 633 b 307 972 569 764 406 972 z "},"ˇ":{"ha":597,"x_min":0,"x_max":0,"o":"m 290 606 b 569 915 368 606 569 826 b 500 972 569 956 535 972 b 304 856 413 972 360 856 b 131 963 264 856 210 963 b 28 874 88 963 28 944 b 290 606 28 814 192 606 z "},"˙":{"ha":340,"x_min":0,"x_max":0,"o":"m 190 972 b 157 704 -1 972 -35 704 b 190 972 349 704 367 972 z "},"˚":{"ha":472,"x_min":0,"x_max":0,"o":"m 242 989 b 238 590 -39 989 -43 590 b 242 989 508 590 514 989 z m 229 728 b 233 863 135 728 133 863 b 229 728 315 863 317 728 z "},"˛":{"ha":376,"x_min":0,"x_max":0,"o":"m 265 135 b 297 -532 -68 135 -132 -532 b 475 -326 424 -532 475 -443 b 236 -111 475 -76 236 -194 b 349 57 236 -67 349 -43 b 265 135 349 107 314 135 z "},"˜":{"ha":586,"x_min":0,"x_max":0,"o":"m 428 972 b 218 921 331 972 288 921 b 101 953 175 921 143 953 b 28 893 56 953 28 921 b 131 788 28 822 83 788 b 331 843 215 788 263 843 b 488 799 396 843 433 799 b 558 863 529 799 558 825 b 428 972 558 925 501 972 z "},"–":{"ha":757,"x_min":0,"x_max":0,"o":"m 396 622 b 29 514 254 622 19 622 b 385 421 38 425 283 421 b 729 525 607 421 729 443 b 396 622 729 586 599 622 z "},"—":{"ha":1039,"x_min":0,"x_max":0,"o":"m 543 622 b 29 514 344 622 15 622 b 528 421 40 425 386 421 b 1011 525 840 421 1011 443 b 543 622 1011 586 828 622 z "},"‘":{"ha":493,"x_min":0,"x_max":0,"o":"m 200 528 b 364 665 294 528 364 582 b 335 781 364 731 335 758 b 465 864 335 815 465 767 b 296 993 465 940 396 993 b 200 528 -29 993 -54 528 z "},"’":{"ha":493,"x_min":0,"x_max":0,"o":"m 293 993 b 129 856 199 993 129 939 b 158 740 129 790 158 763 b 28 657 158 706 28 754 b 197 528 28 581 97 528 b 293 993 522 528 547 993 z "},"‚":{"ha":493,"x_min":0,"x_max":0,"o":"m 293 260 b 129 122 199 260 129 206 b 158 7 129 57 158 29 b 28 -76 158 -28 28 21 b 197 -206 28 -153 97 -206 b 293 260 522 -206 547 260 z "},"“":{"ha":972,"x_min":0,"x_max":0,"o":"m 679 528 b 843 665 774 528 843 582 b 814 781 843 731 814 758 b 944 864 814 815 944 767 b 775 993 944 940 875 993 b 679 528 450 993 425 528 z m 200 528 b 364 665 294 528 364 582 b 335 781 364 731 335 758 b 465 864 335 815 465 767 b 296 993 465 940 396 993 b 200 528 -29 993 -54 528 z "},"”":{"ha":972,"x_min":0,"x_max":0,"o":"m 293 993 b 129 856 199 993 129 939 b 158 740 129 790 158 763 b 28 657 158 706 28 754 b 197 528 28 581 97 528 b 293 993 522 528 547 993 z m 772 993 b 608 856 678 993 608 939 b 638 740 608 790 638 763 b 507 657 638 706 507 754 b 676 528 507 581 576 528 b 772 993 1001 528 1026 993 z "},"„":{"ha":958,"x_min":0,"x_max":0,"o":"m 293 260 b 129 122 199 260 129 206 b 158 7 129 57 158 29 b 28 -76 158 -28 28 21 b 197 -206 28 -153 97 -206 b 293 260 522 -206 547 260 z m 758 260 b 594 122 664 260 594 206 b 624 7 594 57 624 29 b 493 -76 624 -28 493 21 b 663 -206 493 -153 563 -206 b 758 260 988 -206 1013 260 z "},"†":{"ha":653,"x_min":0,"x_max":0,"o":"m 342 779 b 29 671 221 779 21 779 b 332 578 36 582 246 578 b 625 682 521 578 625 600 b 342 779 625 743 514 779 z m 424 460 b 315 967 424 656 424 981 b 222 475 226 956 222 615 b 326 0 222 169 244 0 b 424 460 388 0 424 181 z "},"•":{"ha":458,"x_min":0,"x_max":0,"o":"m 257 713 b 210 333 -14 713 -61 333 b 257 713 482 333 507 713 z "},"…":{"ha":1076,"x_min":0,"x_max":0,"o":"m 190 268 b 157 0 -1 268 -35 0 b 190 268 349 0 367 268 z m 558 268 b 525 0 367 268 333 0 b 558 268 717 0 735 268 z m 926 268 b 893 0 735 268 701 0 b 926 268 1085 0 1103 268 z "},"‹":{"ha":694,"x_min":0,"x_max":0,"o":"m 582 751 b 28 365 415 751 28 489 b 532 0 28 253 335 0 b 661 92 607 0 661 33 b 443 385 661 203 443 311 b 667 671 443 453 667 553 b 582 751 667 725 633 751 z "},"›":{"ha":694,"x_min":0,"x_max":0,"o":"m 113 751 b 28 671 61 751 28 725 b 251 385 28 553 251 453 b 33 92 251 311 33 203 b 163 0 33 33 88 0 b 667 365 360 0 667 253 b 113 751 667 489 279 751 z "},"€":{"ha":1054,"x_min":0,"x_max":0,"o":"m 664 1024 b 589 1 -62 1024 8 25 b 1018 303 793 -7 1018 74 b 828 479 1018 408 929 479 b 635 285 657 479 775 285 b 653 799 439 285 468 799 b 688 758 675 799 688 778 b 657 654 688 724 657 692 b 803 546 657 581 725 546 b 1026 778 939 546 1026 653 b 664 1024 1026 975 824 1024 z m 342 683 b 29 604 221 683 21 683 b 332 538 36 540 246 538 b 625 613 521 538 625 554 b 342 683 625 657 514 683 z m 342 518 b 29 439 221 518 21 518 b 332 372 36 375 246 372 b 625 447 521 372 625 389 b 342 518 625 492 514 518 z "},"™":{"ha":1238,"x_min":0,"x_max":0,"o":"m 276 986 b 28 907 222 986 28 988 b 126 851 28 853 82 858 b 151 782 150 847 151 799 b 144 607 151 731 144 658 b 257 464 144 546 158 464 b 360 604 343 464 360 532 b 357 765 360 657 357 711 l 357 818 b 414 854 357 850 390 854 b 501 915 463 854 501 856 b 276 986 501 989 339 986 z m 668 994 b 560 824 571 994 560 900 b 561 632 560 792 561 665 b 667 464 561 547 563 464 b 756 561 719 464 756 489 b 760 692 756 561 751 692 b 883 474 783 692 826 474 b 1001 690 940 474 978 690 b 1011 561 1017 690 1011 603 b 1100 464 1011 481 1047 464 b 1210 581 1185 464 1210 519 b 1208 829 1210 664 1208 746 b 1097 993 1208 903 1192 993 b 883 713 983 993 918 785 b 668 994 838 797 782 994 z "},"":{"ha":3532,"x_min":0,"x_max":0,"o":"m 238 1011 b 31 850 119 1011 35 985 b 31 425 26 721 32 561 b 357 3 29 200 60 19 b 579 1 431 -1 506 1 b 810 139 676 1 810 11 b 661 238 810 233 735 238 b 442 367 557 238 442 226 l 442 844 b 238 1011 442 972 350 1011 z m 1283 1011 b 1247 0 672 1011 615 0 b 1283 1011 1918 0 1857 1011 z m 1268 169 b 1006 461 1240 169 1017 415 b 1046 604 1001 478 901 493 b 1225 554 1119 661 1219 510 b 1306 726 1233 646 1261 726 b 1374 557 1351 726 1372 647 b 1510 629 1375 518 1472 636 b 1606 507 1594 614 1615 532 b 1268 169 1592 469 1289 169 z m 1293 488 b 1075 646 1268 567 1182 646 b 950 525 997 646 950 596 b 1271 122 950 346 1163 321 b 1633 544 1386 329 1633 363 b 1525 654 1633 586 1618 654 b 1293 488 1410 654 1329 572 z m 1292 417 b 1504 600 1318 479 1418 600 b 1575 522 1564 600 1575 554 b 1271 199 1575 407 1357 353 b 1015 513 1190 346 1015 379 b 1089 589 1015 565 1049 589 b 1292 417 1181 589 1272 475 z m 1924 1007 b 1750 846 1814 1007 1750 960 b 2210 1 1750 644 1942 1 b 2674 854 2475 1 2674 671 b 2504 1011 2674 947 2590 1011 b 2215 411 2247 1011 2319 411 b 1924 1007 2097 411 2221 1007 z m 3450 1043 b 3328 1090 3453 1124 3335 1090 b 3213 1008 3293 1090 3246 1008 b 3106 1008 3176 1008 3140 1008 b 2985 1083 3064 1008 3028 1083 b 2925 1103 2979 1083 2931 1103 b 2851 989 2883 1103 2882 1001 b 2722 768 2769 956 2728 879 b 2722 389 2721 740 2722 418 b 3035 1 2722 150 2694 1 l 3208 1 b 3486 136 3301 1 3486 3 b 3368 229 3486 197 3421 228 l 3158 236 b 3118 294 3122 239 3118 263 b 3372 492 3118 433 3372 264 b 3258 647 3372 572 3356 647 b 3129 661 3207 647 3151 624 b 3088 696 3122 672 3088 674 b 2851 943 3088 728 2832 929 b 2946 1078 2857 947 2871 1072 b 3053 1029 2968 1079 3015 1061 b 3125 965 3083 1004 3104 964 b 3272 1043 3217 971 3261 1043 b 3407 1081 3276 1043 3356 1121 b 3383 867 3497 1008 3390 892 b 3272 790 3368 819 3261 790 b 3483 892 3365 782 3483 772 b 3450 1043 3483 990 3447 967 z m 3153 964 b 2935 1122 3128 1043 3042 1122 b 2810 1001 2857 1122 2810 1072 b 3131 599 2810 822 3022 797 b 3493 1021 3246 806 3493 839 b 3385 1131 3493 1063 3478 1131 b 3153 964 3269 1131 3189 1049 z m 3151 893 b 3364 1076 3178 956 3278 1076 b 3435 999 3424 1076 3435 1031 b 3131 675 3435 883 3217 829 b 2875 989 3050 822 2875 856 b 2949 1065 2875 1042 2908 1065 b 3151 893 3040 1065 3132 951 z "},"":{"ha":3906,"x_min":0,"x_max":0,"o":"m 201 1006 b 28 844 92 1006 28 958 b 488 0 28 643 219 0 b 951 853 753 0 951 669 b 782 1010 951 946 868 1010 b 493 410 525 1010 597 410 b 201 1006 375 410 499 1006 z m 1186 1018 b 1183 742 940 1018 947 742 b 1186 1018 1443 742 1403 1018 z m 1179 686 b 985 486 1040 686 985 618 b 1189 0 985 313 947 0 b 1385 475 1403 0 1392 313 b 1179 686 1379 638 1333 686 z m 2104 833 b 1629 993 2104 1029 1767 1010 b 1447 810 1488 975 1460 951 b 1439 481 1436 701 1435 590 b 1790 265 1447 257 1613 265 b 2157 488 1938 265 2157 293 b 2000 663 2157 603 2061 649 b 2104 833 2053 701 2104 765 z m 1721 804 b 1754 863 1721 826 1725 863 b 1758 711 1833 863 1821 711 b 1721 804 1724 711 1721 782 z m 1739 525 b 1776 578 1739 564 1758 578 b 1786 394 1847 578 1858 394 b 1739 481 1744 394 1739 450 z m 1814 201 b 1436 93 1668 201 1436 201 b 1803 0 1436 6 1699 0 b 2157 104 2032 0 2157 22 b 1814 201 2157 165 2024 201 z m 2829 1007 b 2453 1007 2699 1007 2575 1007 b 2214 767 2299 1007 2221 921 b 2214 388 2213 739 2214 417 b 2526 0 2214 149 2186 0 l 2700 0 b 2978 135 2793 0 2978 1 b 2860 228 2978 196 2913 226 l 2650 235 b 2610 293 2614 238 2610 261 b 2864 490 2610 432 2864 263 b 2750 646 2864 571 2847 646 b 2611 708 2683 646 2611 606 b 2704 793 2611 765 2643 793 b 2975 890 2796 793 2975 743 b 2829 1007 2975 989 2906 1007 z m 3453 1043 b 3058 774 3288 1043 3058 947 b 3504 343 3058 533 3504 493 b 3451 303 3504 314 3479 303 b 3164 524 3314 303 3340 524 b 2974 344 3056 524 2974 454 b 3401 0 2974 113 3200 0 b 3868 310 3585 0 3868 85 b 3435 729 3868 594 3435 522 b 3500 828 3435 761 3461 828 b 3690 596 3560 828 3463 596 b 3453 1043 3949 596 3926 1043 z "}}}
